<?xml version="1.0" standalone="no"?>
<!DOCTYPE svg PUBLIC "-//W3C//DTD SVG 20010904//EN"
 "http://www.w3.org/TR/2001/REC-SVG-20010904/DTD/svg10.dtd">
<svg version="1.0" xmlns="http://www.w3.org/2000/svg"
 width="725.000000pt" height="1088.000000pt" viewBox="0 0 725.000000 1088.000000"
 preserveAspectRatio="xMidYMid meet">

<g transform="translate(0.000000,1088.000000) scale(0.100000,-0.100000)"
fill="#000000" stroke="none">
<path d="M0 5440 l0 -5440 3625 0 3625 0 0 5440 0 5440 -3625 0 -3625 0 0
-5440z m2932 3108 c-7 -7 -12 -8 -12 -2 0 14 12 26 19 19 2 -3 -1 -11 -7 -17z
m458 -2 c0 -2 -7 -7 -16 -10 -8 -3 -12 -2 -9 4 6 10 25 14 25 6z m-490 -44 c0
-5 -11 -14 -25 -20 -31 -14 -33 1 -2 16 28 14 27 13 27 4z m170 -33 c0 -4 -15
-10 -32 -13 -29 -5 -33 -10 -33 -38 0 -18 -4 -33 -10 -33 -5 0 -10 10 -10 23
0 12 -7 27 -15 32 -13 8 -12 10 3 10 10 0 20 6 23 14 5 14 74 19 74 5z m-210
-44 c-12 -14 -10 -15 14 -9 26 6 27 5 17 -14 -6 -11 -16 -23 -23 -25 -10 -4
-10 -8 1 -15 8 -6 23 -5 42 5 21 11 33 11 49 3 28 -15 25 -20 -7 -15 -23 4
-31 0 -48 -27 -13 -20 -32 -35 -52 -40 -30 -8 -32 -10 -20 -29 15 -24 53 -22
51 4 -1 11 5 17 18 17 16 0 18 -3 9 -14 -10 -11 -6 -17 19 -30 30 -14 31 -14
40 10 5 13 13 24 18 24 16 0 97 -79 89 -86 -4 -4 -20 8 -36 27 l-29 34 -21
-24 c-24 -27 -23 -26 -14 -71 l6 -33 11 34 c6 19 19 35 29 37 23 5 22 -18 -3
-74 -31 -67 -36 -102 -15 -110 24 -10 32 9 33 77 1 65 6 79 28 79 12 0 13 -8
9 -34 -4 -19 -2 -43 4 -55 13 -23 41 -29 41 -9 0 9 3 9 12 0 10 -10 10 -15 -1
-22 -12 -7 -12 -11 2 -25 17 -17 15 -35 -4 -35 -6 0 -8 4 -4 9 8 14 -8 21 -24
12 -14 -9 -4 -39 13 -40 13 -1 19 -48 7 -55 -5 -4 -7 4 -4 16 4 17 3 20 -6 12
-6 -6 -14 -21 -16 -34 -3 -13 -11 -28 -20 -33 -8 -4 -26 -18 -39 -30 -13 -12
-52 -47 -87 -77 -34 -30 -77 -68 -94 -85 -17 -16 -49 -46 -71 -66 -83 -76
-387 -395 -516 -540 -85 -97 -335 -411 -393 -494 -22 -32 -45 -63 -51 -69 -70
-74 -424 -638 -527 -841 -55 -108 -69 -123 -46 -45 50 163 122 379 138 415 10
22 29 69 41 105 13 36 27 70 30 75 4 6 17 37 28 70 44 129 337 748 377 795 7
8 21 33 30 55 10 22 38 70 62 106 24 37 43 69 43 73 0 7 150 248 159 256 8 7
27 38 46 76 9 18 32 50 51 72 19 22 34 44 34 49 0 4 11 20 24 34 13 14 35 43
48 65 14 21 39 55 57 74 17 19 31 39 31 43 0 5 31 45 68 90 38 45 74 91 80
102 11 18 12 17 6 -7 -4 -17 -2 -28 4 -28 13 0 42 28 42 41 0 5 9 9 20 9 11 0
20 -4 20 -10 0 -22 28 -8 34 16 4 15 6 28 4 30 -4 4 -65 -10 -91 -21 -17 -7
-18 -6 -6 14 8 11 19 21 26 21 7 0 13 6 13 14 0 16 42 46 64 46 8 0 19 -6 23
-13 6 -10 13 -11 31 -2 18 10 20 14 9 23 -7 6 -27 12 -45 14 -24 2 -29 5 -20
15 6 7 17 13 24 13 8 0 14 7 14 16 0 13 5 12 30 -6 17 -12 36 -19 43 -17 6 3
4 6 -7 6 -13 1 -16 5 -9 14 5 6 10 22 11 35 1 25 21 56 30 47 3 -2 -1 -12 -8
-20z m276 -53 c-3 -5 -16 -12 -28 -15 l-23 -6 24 20 c23 19 39 20 27 1z m-96
-68 c0 -16 -21 -23 -53 -17 -22 4 -25 8 -16 19 13 16 69 14 69 -2z m90 -34 c0
-5 -4 -10 -10 -10 -5 0 -10 5 -10 10 0 6 5 10 10 10 6 0 10 -4 10 -10z m120
-10 c8 -5 11 -10 5 -10 -5 0 -17 5 -25 10 -8 5 -10 10 -5 10 6 0 17 -5 25 -10z
m-89 -33 c-8 -8 -11 -7 -11 4 0 20 13 34 18 19 3 -7 -1 -17 -7 -23z m343 -12
c-4 -8 -11 -15 -16 -15 -6 0 -5 6 2 15 7 8 14 15 16 15 2 0 1 -7 -2 -15z
m-384 -25 c0 -5 -2 -10 -4 -10 -3 0 -8 5 -11 10 -3 6 -1 10 4 10 6 0 11 -4 11
-10z m130 -62 c0 -20 -18 -5 -23 19 -5 26 -4 26 9 8 8 -10 14 -22 14 -27z
m-52 -25 c-2 -19 1 -27 10 -25 8 1 11 -2 7 -8 -3 -5 -19 -10 -36 -10 -36 0
-40 31 -7 54 29 21 30 21 26 -11z m82 -54 c0 -11 -3 -11 -24 -3 -23 9 -20 23
4 17 11 -3 20 -9 20 -14z m-20 -17 c0 -2 -7 -11 -16 -19 -13 -14 -17 -14 -24
-3 -5 8 -7 17 -5 20 4 6 45 8 45 2z m-60 -18 c0 -3 -7 -12 -15 -21 -20 -19
-32 -9 -15 12 12 15 30 20 30 9z m-35 -64 c-10 -11 -20 -18 -23 -15 -7 6 18
35 31 35 5 0 2 -9 -8 -20z"/>
<path d="M2757 8233 c-4 -3 -7 -11 -7 -17 0 -6 5 -5 12 2 6 6 9 14 7 17 -3 3
-9 2 -12 -2z"/>
<path d="M2791 8210 c-1 -8 -17 -31 -36 -50 -29 -28 -32 -36 -20 -43 10 -5 24
-2 40 10 30 22 33 30 24 68 -4 17 -7 23 -8 15z"/>
<path d="M2867 8202 c-51 -3 -59 -19 -19 -37 12 -5 22 -15 22 -22 0 -7 5 -13
10 -13 6 0 10 6 10 14 0 8 7 22 16 30 24 24 14 31 -39 28z"/>
<path d="M2917 8156 c-15 -15 -13 -56 3 -56 10 0 24 59 17 66 -2 3 -12 -2 -20
-10z"/>
<path d="M2839 8073 c-17 -45 -4 -55 31 -25 37 32 39 52 5 52 -18 0 -28 -7
-36 -27z"/>
<path d="M2945 8080 c-3 -5 -1 -10 4 -10 6 0 11 5 11 10 0 6 -2 10 -4 10 -3 0
-8 -4 -11 -10z"/>
<path d="M2660 8069 c0 -5 5 -7 10 -4 6 3 10 8 10 11 0 2 -4 4 -10 4 -5 0 -10
-5 -10 -11z"/>
<path d="M2742 8049 c2 -6 8 -10 13 -10 5 0 11 4 13 10 2 6 -4 11 -13 11 -9 0
-15 -5 -13 -11z"/>
<path d="M2870 7981 c0 -14 5 -19 15 -14 17 6 15 25 -3 31 -7 2 -12 -5 -12
-17z"/>
<path d="M2622 7968 c-7 -7 -12 -16 -12 -20 0 -15 15 -8 28 12 13 22 3 27 -16
8z"/>
<path d="M2910 7954 c0 -10 26 -31 48 -38 36 -12 27 20 -9 33 -37 13 -39 13
-39 5z"/>
<path d="M2902 7884 c4 -21 22 -23 26 -1 2 10 -3 17 -13 17 -10 0 -15 -6 -13
-16z"/>
<path d="M2930 7808 c0 -4 7 -8 15 -8 8 0 15 4 15 8 0 5 -7 9 -15 9 -8 0 -15
-4 -15 -9z"/>
</g>
</svg>
