<svg xmlns="http://www.w3.org/2000/svg" version="1.1" xmlns:xlink="http://www.w3.org/1999/xlink" xmlns:svgjs="http://svgjs.com/svgjs" width="512" height="512" x="0" y="0" viewBox="0 0 512 512" style="enable-background:new 0 0 512 512" xml:space="preserve" class=""><g><g><path d="m323.485 16v32h75c2.761 0 5 2.239 5 5v56.038c0 19.309-15.653 34.962-34.962 34.962h-45.038v32h45.038c36.982 0 66.962-29.98 66.962-66.962v-88.038c0-2.761-2.239-5-5-5z" fill="#e8b800" data-original="#e8b800"></path><path d="m195.485 16v32h-75c-2.761 0-5 2.239-5 5v56.038c0 19.309 15.653 34.962 34.962 34.962h45.038v32h-45.038c-36.982 0-66.962-29.98-66.962-66.962v-88.038c0-2.761 2.239-5 5-5z" fill="#fac600" data-original="#fac600" class=""></path><path d="m259.485 240c-53.019 0-96-42.981-96-96v-134c0-5.523 4.477-10 10-10h172c5.523 0 10 4.477 10 10v134c0 53.019-42.981 96-96 96z" fill="#fed402" data-original="#fed402" class=""></path><g fill="#fac600"><path d="m266.424 61.517 13.959 28.505c1.115 2.278 3.277 3.863 5.785 4.242l32.039 4.839c6.389.965 8.841 8.878 4.119 13.287l-23.071 21.538c-1.917 1.789-2.795 4.428-2.333 7.009l5.749 32.12c1.148 6.413-5.67 11.281-11.363 8.112l-28.065-15.619c-2.336-1.3-5.178-1.3-7.515 0l-28.065 15.619c-5.693 3.168-12.511-1.699-11.363-8.112l5.749-32.12c.462-2.581-.417-5.22-2.333-7.009l-23.071-21.538c-4.723-4.409-2.27-12.323 4.119-13.287l32.039-4.839c2.508-.379 4.67-1.964 5.785-4.242l13.959-28.505c2.825-5.771 11.05-5.771 13.877 0z" fill="#fac600" data-original="#fac600" class=""></path><path d="m314.277 0v123.397c0 53.019-42.981 96-96 96-7.229 0-14.269-.805-21.042-2.319 16.762 14.291 38.496 22.922 62.25 22.922 53.019 0 96-42.981 96-96v-134c0-5.523-4.477-10-10-10z" fill="#fac600" data-original="#fac600" class=""></path><path d="m291.485 336-32 16-32-16 16-64 16-16 16 16z" fill="#fac600" data-original="#fac600" class=""></path></g><path d="m243.485 272-4.953 19.813c1.561.508 3.223.791 4.953.791h32c1.73 0 3.392-.283 4.953-.791l-4.953-19.813-11.396-11.396h-9.207z" fill="#e8b800" data-original="#e8b800"></path><path d="m323.485 368-64 16-64-16c0-17.673 14.327-32 32-32h64c17.673 0 32 14.327 32 32z" fill="#0055a3" data-original="#0055a3" class=""></path><path d="m275.485 272h-32c-8.837 0-16-7.163-16-16 0-8.837 7.163-16 16-16h32c8.837 0 16 7.163 16 16 0 8.837-7.164 16-16 16z" fill="#fed402" data-original="#fed402" class=""></path><path d="m141.151 238.545c-10.55 7.375-19.738 16.572-27.119 27.126-2.008 2.871-6.217 2.872-8.227.003-7.392-10.555-16.583-19.754-27.134-27.129-2.872-2.007-2.874-6.218-.005-8.228 10.554-7.394 19.746-16.587 27.139-27.141 2.01-2.869 6.219-2.867 8.226.003 7.382 10.553 16.572 19.744 27.124 27.138 2.87 2.01 2.867 6.221-.004 8.228z" fill="#fee45a" data-original="#fee45a" class=""></path><path d="m189.404 310.446c-7.482 5.406-14.061 11.991-19.471 19.477-1.968 2.724-6.064 2.725-8.035.002-5.417-7.486-11.998-14.072-19.482-19.479-2.724-1.968-2.726-6.064-.004-8.034 7.485-5.419 14.067-12.001 19.486-19.487 1.97-2.722 6.065-2.72 8.034.002 5.411 7.485 11.991 14.066 19.475 19.484 2.723 1.971 2.721 6.067-.003 8.035z" fill="#fee45a" data-original="#fee45a" class=""></path><path d="m429.009 268.149c-14.697 9.969-27.393 22.68-37.373 37.382-1.992 2.934-6.288 2.936-8.282.003-9.997-14.703-22.695-27.415-37.394-37.385-2.935-1.991-2.938-6.289-.005-8.283 14.701-9.998 27.402-22.699 37.399-37.401 1.994-2.932 6.29-2.93 8.282.003 9.981 14.7 22.679 27.4 37.379 37.398 2.933 1.994 2.93 6.292-.006 8.283z" fill="#fee45a" data-original="#fee45a" class=""></path><path d="m266.424 40.914 13.959 28.505c1.115 2.278 3.277 3.863 5.785 4.242l32.039 4.839c6.389.965 8.841 8.878 4.119 13.287l-23.071 21.538c-1.917 1.789-2.795 4.428-2.333 7.009l5.749 32.12c1.148 6.413-5.67 11.281-11.363 8.112l-28.065-15.619c-2.336-1.3-5.178-1.3-7.515 0l-28.065 15.619c-5.693 3.168-12.511-1.699-11.363-8.112l5.749-32.12c.462-2.581-.417-5.22-2.333-7.009l-23.071-21.538c-4.723-4.409-2.27-12.323 4.119-13.287l32.039-4.839c2.508-.379 4.67-1.964 5.785-4.242l13.959-28.505c2.825-5.771 11.05-5.771 13.877 0z" fill="#fd6930" data-original="#fd6930" class=""></path><path d="m318.207 78.499-3.929-.594v21.395l8.048-7.513c4.722-4.409 2.269-12.323-4.119-13.288z" fill="#fd5426" data-original="#fd5426" class=""></path><path d="m340.032 368h-161.095c-8.534 0-15.453 6.918-15.453 15.453v96.547l96 16 96-16v-96.547c.001-8.535-6.918-15.453-15.452-15.453z" fill="#fd6930" data-original="#fd6930" class=""></path><path d="m340.032 368h-36.056v65.371c0 14.373-11.652 26.025-26.025 26.025h-114.466v20.604l96 16 96-16v-96.547c0-8.535-6.919-15.453-15.453-15.453z" fill="#fd5426" data-original="#fd5426" class=""></path><path d="m318.485 400h-118c-2.761 0-5 2.239-5 5v38c0 2.761 2.239 5 5 5h118c2.761 0 5-2.239 5-5v-38c0-2.761-2.239-5-5-5z" fill="#b2caec" data-original="#b2caec" class=""></path><path d="m323.485 443v-38c0-2.761-2.239-5-5-5h-14.509v33.371c0 5.424-1.661 10.46-4.5 14.629h19.009c2.761 0 5-2.239 5-5z" fill="#82aee3" data-original="#82aee3" class=""></path><path d="m372.032 480h-225.095c-8.534 0-15.453 6.918-15.453 15.453v6.547c0 5.523 4.477 10 10 10h236c5.523 0 10-4.477 10-10v-6.547c.001-8.535-6.918-15.453-15.452-15.453z" fill="#fd6930" data-original="#fd6930" class=""></path></g></g></svg>